<?xml version="1.0" encoding="utf-8"?>
<!-- Generator: Adobe Illustrator 26.0.1, SVG Export Plug-In . SVG Version: 6.00 Build 0)  -->
<svg version="1.1" id="Layer_1" xmlns="http://www.w3.org/2000/svg" xmlns:xlink="http://www.w3.org/1999/xlink" x="0px" y="0px"
	 viewBox="0 0 491.24 152.78" style="enable-background:new 0 0 491.24 152.78;" xml:space="preserve">
<style type="text/css">
	.st0{fill:#D21317;}
	.st1{fill:#1A1D28;}
	.st2{fill:#B61B18;}
	.st3{fill:#3D3937;}
	.st4{fill:#1D1612;}
</style>
<g>
	<path class="st2" d="M73.48,64.07h15.19l-0.76,6.17H72.72L73.48,64.07z M76.18,88.32l1.97-16.35h5.09l-2.01,16.35H76.18z"/>
	<path class="st2" d="M94.44,71.97l-1.25,10.22h13.37l-0.72,6.12H91.06c-0.96,0-1.76-0.48-2.39-1.43s-0.87-2.06-0.72-3.31l1.44-11.6
		H94.44z M90.34,64.07h18.46l-0.72,6.17H89.58L90.34,64.07z M95.62,73.5h9.65l-0.76,5.97H94.9L95.62,73.5z"/>
	<path class="st2" d="M122.47,82.19l0.34-2.72h5.01l-0.65,5.38c-0.13,0.99-0.49,1.81-1.08,2.47s-1.27,0.99-2.03,0.99h-12.08
		c-0.96,0-1.76-0.48-2.39-1.43s-0.87-2.06-0.72-3.31l1.44-11.6h5.05l-1.25,10.22H122.47z M126.04,64.07c0.99,0,1.79,0.48,2.41,1.43
		c0.62,0.96,0.85,2.06,0.7,3.31l-0.68,5.88h-5.09l0.57-4.44h-13.44l0.76-6.17H126.04z"/>
	<path class="st2" d="M129.57,88.32l1.97-16.35h5.09l-2.01,16.35H129.57z M132.53,64.07h5.05l-0.76,6.17h-5.05L132.53,64.07z
		 M145.71,64.07h5.09l-3.08,24.25h-5.05l1.1-8.84h-6.68l0.68-5.97h6.76L145.71,64.07z"/>
	<path class="st2" d="M168.08,64.07h5.05l-3.04,24.25H165l0.46-3.46l-7.67-11.75l-1.86,15.21h-5.05l2.96-24.25h5.51l7.33,11.11
		L168.08,64.07z"/>
	<path class="st2" d="M190.87,64.07c0.96,0,1.76,0.48,2.39,1.43c0.63,0.96,0.87,2.06,0.72,3.31l-1.97,16.15
		c-0.08,0.66-0.26,1.25-0.55,1.78c-0.29,0.53-0.67,0.94-1.12,1.23c-0.46,0.3-0.94,0.44-1.44,0.44h-12.08
		c-0.99,0-1.79-0.48-2.41-1.43c-0.62-0.96-0.85-2.06-0.7-3.31l1.98-16.15c0.1-0.99,0.45-1.81,1.04-2.47
		c0.59-0.66,1.29-0.99,2.07-0.99H190.87z M187.3,82.24l1.44-11.9h-8.35l-1.44,11.9H187.3z"/>
	<path class="st2" d="M194.51,88.32l1.97-16.35h5.05l-1.97,16.35H194.51z M214.56,64.07h9.15l-3.08,24.25h-5.09l2.32-18.12
		l-7.67,18.12h-5.09l-3.3-18.32l-0.04,0.25h-5.05l0.76-6.17h8.32l2.77,15.36L214.56,64.07z"/>
	<path class="st2" d="M230.74,71.97l-1.25,10.22h13.37l-0.72,6.12h-14.77c-0.96,0-1.76-0.48-2.39-1.43s-0.87-2.06-0.72-3.31
		l1.44-11.6H230.74z M226.64,64.07h18.46l-0.72,6.17h-18.49L226.64,64.07z M231.92,73.5h9.65l-0.76,5.97h-9.61L231.92,73.5z"/>
	<path class="st2" d="M250.41,82.14l8.17,0.05l-0.72,6.12h-9.57c-0.96,0-1.76-0.48-2.39-1.43s-0.87-2.06-0.72-3.31l1.44-11.6h5.05
		L250.41,82.14z M252.69,64.07l-0.76,6.17h-5.13l0.76-6.17H252.69z"/>
	<path class="st2" d="M258.65,64.07h15.19l-0.76,6.17h-15.19L258.65,64.07z M261.35,88.32l1.97-16.35h5.09l-2.01,16.35H261.35z"/>
	<path d="M299.52,72.41c0.89-0.1,1.63,0.26,2.24,1.09s0.84,1.81,0.68,2.96l-1.06,8.39c-0.13,0.99-0.49,1.81-1.08,2.47
		c-0.6,0.66-1.27,0.99-2.03,0.99h-12.08c-0.96,0-1.76-0.48-2.39-1.43c-0.63-0.96-0.87-2.06-0.72-3.31l0.42-3.16l5.05,0.05
		l-0.23,1.68h8.36l0.61-4.35l-9.15,1.09c-1.17,0.17-2.14-0.3-2.92-1.38c-0.79-1.09-1.09-2.37-0.91-3.85l0.23-1.68h5.05l-0.19,1.68
		L299.52,72.41z M285.46,64.07h18.42l-0.68,6.17h-18.5L285.46,64.07z"/>
	<path d="M321.5,64.07c0.96,0,1.76,0.48,2.39,1.43c0.63,0.96,0.87,2.06,0.72,3.31l-1.97,16.15c-0.08,0.66-0.26,1.25-0.55,1.78
		c-0.29,0.53-0.67,0.94-1.12,1.23c-0.46,0.3-0.94,0.44-1.44,0.44h-12.08c-0.99,0-1.79-0.48-2.41-1.43c-0.62-0.96-0.85-2.06-0.7-3.31
		l1.98-16.15c0.1-0.99,0.45-1.81,1.04-2.47c0.59-0.66,1.29-0.99,2.07-0.99H321.5z M317.93,82.24l1.44-11.9h-8.35l-1.44,11.9H317.93z
		"/>
	<path d="M330.88,82.14l8.17,0.05l-0.72,6.12h-9.57c-0.96,0-1.76-0.48-2.39-1.43s-0.87-2.06-0.72-3.31l1.44-11.6h5.05L330.88,82.14z
		 M333.16,64.07l-0.76,6.17h-5.13l0.76-6.17H333.16z"/>
	<path d="M356.48,64.07h5.05l-2.51,20.79c-0.13,0.99-0.48,1.81-1.06,2.47c-0.58,0.66-1.27,0.99-2.05,0.99H343.8
		c-0.96,0-1.76-0.48-2.39-1.43s-0.87-2.06-0.72-3.31l1.44-11.6h5.05l-1.25,10.22h8.36L356.48,64.07z M348.16,64.07l-0.76,6.17h-5.09
		l0.76-6.17H348.16z"/>
	<path d="M363.35,64.07h15.19l-0.76,6.17h-15.19L363.35,64.07z M366.05,88.32l1.97-16.35h5.09l-2.01,16.35H366.05z"/>
	<path d="M380.37,64.07h5.09l-3.08,24.25h-5.05L380.37,64.07z"/>
	<path d="M403.15,64.07c0.96,0,1.76,0.48,2.39,1.43c0.63,0.96,0.87,2.06,0.72,3.31l-1.97,16.15c-0.08,0.66-0.26,1.25-0.55,1.78
		c-0.29,0.53-0.67,0.94-1.12,1.23c-0.46,0.3-0.94,0.44-1.44,0.44H389.1c-0.99,0-1.79-0.48-2.41-1.43c-0.62-0.96-0.85-2.06-0.7-3.31
		l1.98-16.15c0.1-0.99,0.45-1.81,1.04-2.47c0.59-0.66,1.29-0.99,2.07-0.99H403.15z M399.58,82.24l1.44-11.9h-8.35l-1.44,11.9H399.58
		z"/>
	<path d="M424.04,64.07h5.05l-3.04,24.25h-5.09l0.46-3.46l-7.67-11.75l-1.86,15.21h-5.05l2.96-24.25h5.51l7.33,11.11L424.04,64.07z"
		/>
	<path d="M445.95,72.41c0.89-0.1,1.63,0.26,2.24,1.09s0.84,1.81,0.68,2.96l-1.06,8.39c-0.13,0.99-0.49,1.81-1.08,2.47
		c-0.6,0.66-1.27,0.99-2.03,0.99h-12.08c-0.96,0-1.76-0.48-2.39-1.43c-0.63-0.96-0.87-2.06-0.72-3.31l0.42-3.16l5.05,0.05
		l-0.23,1.68h8.36l0.61-4.35l-9.15,1.09c-1.17,0.17-2.14-0.3-2.92-1.38c-0.79-1.09-1.09-2.37-0.91-3.85l0.23-1.68H436l-0.19,1.68
		L445.95,72.41z M431.9,64.07h18.42l-0.68,6.17h-18.5L431.9,64.07z"/>
</g>
<g>
	<path class="st0" d="M40.92,71.18v-7.3l7.18,0.39c0.22-1.57,0.58-3.06,1.06-4.48l-6.08-4.04l3.24-5.53l6.56,2.75
		c0.89-1.11,1.88-2.12,2.96-3.03l-3.97-5.02l5.37-2.98l5,4.18c1.3-0.52,2.67-0.95,4.08-1.26l-1.67-4.95l6.27-0.4l3.05,4.67
		c1.46,0.05,2.94,0.2,4.45,0.45l0.35-4.17l6.18,1.78l1.14,4.47c1.44,0.55,2.84,1.17,4.2,1.86l1.92-2.99l5.41,3.44l-0.55,3.78
		c1.22,0.91,2.38,1.88,3.5,2.9c0,0,0.01,0.01,0.01,0.01l0,0l3.05-1.63l4.21,4.6l-1.96,2.77l-0.23,0.33c-0.51-0.6-1.02-1.2-1.56-1.78
		c-2.18-2.36-4.64-4.45-7.3-6.26c-2.69-1.77-5.58-3.25-8.64-4.3c-3.05-1.07-6.26-1.71-9.5-1.82c-3.24-0.11-6.54,0.35-9.6,1.51
		c-3.06,1.14-5.89,3-8.07,5.47c-2.2,2.46-3.71,5.49-4.48,8.68c-0.77,3.19-0.83,6.52-0.39,9.74c0.92,6.48,3.9,12.52,8.05,17.48
		c2.08,2.49,4.45,4.72,7.04,6.65c2.59,1.94,5.43,3.55,8.43,4.77c2.99,1.22,6.15,2.06,9.37,2.4c3.21,0.35,6.5,0.21,9.64-0.59
		c3.13-0.8,6.1-2.3,8.53-4.42c1.22-1.06,2.3-2.26,3.21-3.59c0.02-0.02,0.03-0.05,0.04-0.08l0.44,0.57l3.22,4.17l-3.27,4.29
		l-4.16-3.29c-0.96,0.87-2.01,1.66-3.14,2.37l1.88,5.27l-5.39,2.56l-3.23-4.91c-1.4,0.38-2.87,0.65-4.41,0.81l-0.19,5.77h-7.03
		l-1.38-6.01c-1.7-0.26-3.39-0.64-5.06-1.14l-2.81,5.31l-7.55-3.08l1.28-6.15c-1.65-0.95-3.24-2-4.77-3.15l-5.4,3.59l-6.39-5.91
		l4.18-4.87c-1.25-1.48-2.39-3.02-3.42-4.63l-7.11,0.91l-3.59-7.51l6.37-2.42c-0.55-1.69-0.98-3.4-1.26-5.11L40.92,71.18z"/>
	<path class="st1" d="M106.96,99.09c-2.45,2.01-5.39,3.39-8.46,4.08c-3.07,0.72-6.28,0.8-9.41,0.4c-3.13-0.39-6.2-1.26-9.1-2.5
		c-5.79-2.5-10.97-6.4-14.98-11.26c-4-4.85-6.85-10.72-7.7-16.94c-0.44-3.1-0.39-6.27,0.32-9.3c0.71-3.03,2.12-5.89,4.17-8.21
		c2.05-2.33,4.7-4.11,7.62-5.22c2.92-1.11,6.06-1.6,9.2-1.56c3.14,0.05,6.28,0.61,9.28,1.61c3.01,0.97,5.87,2.38,8.56,4.07
		c2.68,1.7,5.17,3.7,7.4,5.98c0.56,0.56,1.09,1.16,1.62,1.75c0.01,0.01,0.01,0.02,0.02,0.02l-0.11,0.16
		c-0.01-0.01-0.01-0.01-0.02-0.02l0,0c-1.64-1.82-3.46-3.5-5.44-4.99c-0.28-0.21-0.57-0.42-0.86-0.63l0,0
		c-0.01,0-0.01-0.01-0.02-0.01c-3.42-2.43-7.3-4.32-11.43-5.37c-14.59-3.72-27.26,4.44-26.59,19.52
		c0.72,16.16,16.04,30.82,32.1,31.56c4.41,0.2,8.3-0.71,11.47-2.45c2.15-1.18,3.98-2.74,5.44-4.6l0.25,0.32
		c-0.03,0.04-0.05,0.08-0.08,0.12C109.29,96.92,108.19,98.08,106.96,99.09z"/>
</g>
</svg>
